<svg width="21" height="20" viewBox="0 0 21 20" fill="none" xmlns="http://www.w3.org/2000/svg">
<path d="M20.9125 2.79997C20.825 2.71249 20.7375 2.62496 20.5625 2.62496H3.9375L3.49999 0.349986C3.49999 0.174973 3.23749 7.20775e-09 3.06247 7.20775e-09H0.437473C0.175014 -4.10084e-05 0 0.174973 0 0.437473C0 0.699973 0.175014 0.874986 0.437514 0.874986H2.71253L4.81253 11.55C5.07503 12.95 6.38753 14 7.78751 14H17.85C18.1125 14 18.2875 13.825 18.2875 13.5625C18.2875 13.3 18.1125 13.125 17.85 13.125H7.875C7.17499 13.125 6.47501 12.775 6.12499 12.1624L18.9 10.4125C19.075 10.4125 19.25 10.2375 19.25 10.0625L21 3.06247C21 3.06247 21 2.88746 20.9125 2.79997ZM18.4625 9.62497L5.68747 11.2875L4.11247 3.41246H19.95L18.4625 9.62497Z" fill="#454545"/>
<path d="M7.43749 14.875C6.21251 14.875 5.25 15.8375 5.25 17.0624C5.25 18.2875 6.21251 19.2499 7.43749 19.2499C8.6625 19.2499 9.62497 18.2874 9.62497 17.0624C9.62501 15.8375 8.6625 14.875 7.43749 14.875ZM7.43749 18.3749C6.73747 18.3749 6.12499 17.7624 6.12499 17.0624C6.12499 16.3625 6.73747 15.7499 7.43749 15.7499C8.1375 15.7499 8.74999 16.3625 8.74999 17.0624C8.74999 17.7624 8.1375 18.3749 7.43749 18.3749Z" fill="#454545"/>
<path d="M16.1876 14.875C14.9625 14.875 14.0001 15.8375 14.0001 17.0624C14.0001 18.2875 14.9626 19.2499 16.1876 19.2499C17.4126 19.2499 18.375 18.2874 18.375 17.0624C18.375 15.8375 17.4125 14.875 16.1876 14.875ZM16.1876 18.3749C15.4875 18.3749 14.8751 17.7624 14.8751 17.0624C14.8751 16.3625 15.4875 15.7499 16.1876 15.7499C16.8876 15.7499 17.5001 16.3625 17.5001 17.0624C17.5001 17.7624 16.8875 18.3749 16.1876 18.3749Z" fill="#454545"/>
</svg>
