<svg width="50" height="32" viewBox="0 0 50 32" fill="none" xmlns="http://www.w3.org/2000/svg">
<path d="M46.3443 13.4907L45.0554 8.33511C45.4078 8.26026 45.6722 7.94763 45.6722 7.57308V6.74183C45.6722 4.93703 44.2038 3.46876 42.3991 3.46876H36.5284V1.75417C36.5284 0.866052 35.8059 0.143585 34.9178 0.143585H4.9924C4.10428 0.143585 3.38182 0.866052 3.38182 1.75417V15.8856C3.38182 16.316 3.7307 16.665 4.16115 16.665C4.5915 16.665 4.94049 16.3161 4.94049 15.8856V1.75417C4.94049 1.72549 4.96372 1.70226 4.9924 1.70226H34.9177C34.9464 1.70226 34.9696 1.72549 34.9696 1.75417V15.8858C34.9696 16.3162 35.3185 16.6652 35.749 16.6652C36.1793 16.6652 36.5283 16.3163 36.5283 15.8858V15.0024H45.7214C45.7221 15.0024 45.7227 15.0026 45.7234 15.0026C45.7242 15.0026 45.7249 15.0025 45.7255 15.0025C46.8568 15.0032 47.8173 15.7457 48.1473 16.7689H45.724C45.2936 16.7689 44.9447 17.1178 44.9447 17.5482V19.2107C44.9447 20.5572 46.04 21.6525 47.3865 21.6525H48.2697V25.0814H46.232C45.5626 23.1486 43.7253 21.7563 41.5677 21.7563C39.4101 21.7563 37.5726 23.1486 36.9033 25.0814H36.5281V19.2106C36.5281 18.7803 36.1792 18.4313 35.7488 18.4313C35.3184 18.4313 34.9694 18.7802 34.9694 19.2106V25.0812H18.8006C18.1312 23.1484 16.2939 21.7562 14.1363 21.7562C11.9787 21.7562 10.1412 23.1484 9.47194 25.0812H4.9924C4.96372 25.0812 4.94049 25.058 4.94049 25.0293V23.3148H8.31747C8.74782 23.3148 9.09681 22.9659 9.09681 22.5355C9.09681 22.105 8.74792 21.7562 8.31747 21.7562H0.83617C0.40582 21.7562 0.0568352 22.105 0.0568352 22.5355C0.0568352 22.9659 0.405723 23.3148 0.83617 23.3148H3.38191V25.0293C3.38191 25.9174 4.10438 26.6399 4.99249 26.6399H9.20209C9.20189 26.6572 9.20073 26.6744 9.20073 26.6918C9.20073 29.4133 11.4149 31.6274 14.1363 31.6274C16.8577 31.6274 19.0718 29.4133 19.0718 26.6918C19.0718 26.6743 19.0707 26.6572 19.0705 26.6399H36.6335C36.6333 26.6572 36.6321 26.6744 36.6321 26.6918C36.6321 29.4133 38.8463 31.6274 41.5677 31.6274C44.2891 31.6274 46.5032 29.4133 46.5032 26.6918C46.5032 26.6743 46.5021 26.6572 46.5019 26.6399H49.0491C49.4794 26.6399 49.8284 26.291 49.8284 25.8606V17.548C49.8285 15.4957 48.3143 13.7905 46.3443 13.4907ZM36.5284 5.02733H42.3991C43.3445 5.02733 44.1136 5.79646 44.1136 6.74183V6.79374H36.5284V5.02733ZM36.5284 13.4438V8.35231H43.4532L44.726 13.4438H36.5284ZM14.1363 30.069C12.2742 30.069 10.7593 28.5542 10.7593 26.692C10.7593 24.8298 12.2742 23.315 14.1363 23.315C15.9984 23.315 17.5133 24.8298 17.5133 26.692C17.5133 28.5542 15.9984 30.069 14.1363 30.069ZM41.5679 30.069C39.7058 30.069 38.1909 28.5542 38.1909 26.692C38.1909 24.8298 39.7058 23.315 41.5679 23.315C43.4299 23.315 44.9449 24.8298 44.9449 26.692C44.9449 28.5542 43.4299 30.069 41.5679 30.069ZM48.2699 20.0939H47.3867C46.8997 20.0939 46.5034 19.6976 46.5034 19.2106V18.3274H48.2698V20.0939H48.2699Z" fill="black"/>
</svg>
