<svg width="33" height="48" viewBox="0 0 33 48" fill="none" xmlns="http://www.w3.org/2000/svg">
<path d="M1.31242 39.5218L22.4419 47.0131C22.6313 47.0804 22.8395 47.0693 23.0208 46.9831C23.2035 46.8884 23.3426 46.7264 23.4092 46.5314L26.1172 38.8708H31.5914C32.0098 38.8708 32.3926 38.573 32.3926 38.1547V10.515C32.3845 10.3418 32.3194 10.1761 32.2069 10.0441L27.6597 4.31727C27.5125 4.13417 27.2909 4.02616 27.0557 4.02394H19.2005C19.1705 4.02394 19.1405 3.94737 19.1098 3.90631C17.9909 2.4023 16.6193 1.21418 15.2495 0.554644C13.7207 -0.180718 12.3421 -0.184787 11.3678 0.540218C10.3935 1.26559 10.0025 2.58836 10.2681 4.26364C10.4223 5.16287 10.7064 6.03509 11.1107 6.85294L8.58911 10.0444C8.48591 10.1791 8.43153 10.3452 8.43486 10.515V17.2183L0.861145 38.5545C0.791973 38.7428 0.800851 38.9507 0.885558 39.1323C0.970635 39.3136 1.12414 39.4538 1.31242 39.5218ZM12.2722 1.75016C13.1877 1.06881 15.349 1.84523 17.2614 4.0232H13.7104C13.4785 4.02616 13.2598 4.13417 13.1167 4.3169L12.1753 5.50465C11.4902 3.74245 11.5713 2.27135 12.2722 1.75016ZM9.94998 10.7787L11.9271 8.2741C12.0714 8.49382 12.2175 8.71169 12.3773 8.92624C13.4962 10.4303 14.8648 11.6217 16.2353 12.2812C16.529 12.4236 16.8331 12.5431 17.1453 12.6382C17.3639 14.2746 18.7706 15.4905 20.4215 15.469C22.0727 15.448 23.4477 14.1969 23.6241 12.555C23.8005 10.9133 22.7227 9.3986 21.114 9.02722C19.5049 8.65584 17.8721 9.54471 17.311 11.0976C16.1706 10.6725 14.7905 9.63755 13.588 8.02183C13.3468 7.69558 13.1226 7.35749 12.9158 7.00867L14.0762 5.53832H26.6895L30.8775 10.7787V37.3557H9.94998V10.7787ZM21.1668 10.6463C21.8697 10.9973 22.2525 11.7741 22.1031 12.5453C21.9536 13.3166 21.3085 13.894 20.5254 13.9576C19.7424 14.0209 19.0125 13.5552 18.741 12.8176C19.2374 12.7725 19.7124 12.5927 20.1141 12.2975C20.6353 11.9099 20.9908 11.3476 21.1668 10.6459V10.6463ZM19.2101 11.0816C19.125 11.1438 19.0314 11.1934 18.9323 11.2289C19.091 10.9951 19.3033 10.8031 19.5515 10.6685C19.4709 10.8305 19.354 10.9722 19.2101 11.082V11.0816ZM8.43486 21.7525V38.1547C8.43227 38.3492 8.50995 38.5364 8.64978 38.6722C8.7896 38.8076 8.97899 38.8797 9.17356 38.8708H24.51L22.234 45.3115L2.54197 38.3367L8.43486 21.7525Z" fill="black"/>
</svg>
