<svg width="24" height="24" viewBox="0 0 24 24" fill="none" xmlns="http://www.w3.org/2000/svg">
<path d="M11.677 0.972531L11.6771 0.97258L22.4575 11.4085C22.5692 11.5166 22.4911 11.7083 22.3362 11.7083H19.6314H19.0314V12.3083V22.783C19.0314 22.8793 18.9532 22.9575 18.8569 22.9575H15.4558V15.5866C15.4558 14.8275 14.8404 14.2122 14.0813 14.2122H9.03009C8.27095 14.2122 7.6556 14.8276 7.6556 15.5866V22.9575H4.2545C4.15815 22.9575 4.08001 22.8794 4.08001 22.783V12.3083V11.7083H3.48001H0.775201C0.619737 11.7083 0.542534 11.5162 0.653865 11.4085L0.653871 11.4085L11.4344 0.972581L11.4344 0.972532C11.502 0.907056 11.6094 0.907057 11.677 0.972531Z" stroke="#6E429A" stroke-width="1.2"/>
</svg>
