<svg width="28" height="23" viewBox="0 0 28 23" fill="none" xmlns="http://www.w3.org/2000/svg">
<path d="M26.5995 22.1493H26.1349V10.0329C27.184 9.35787 27.8809 8.18072 27.8809 6.84309C27.8809 6.77203 27.8623 6.70216 27.8271 6.64046L24.5863 0.969097C24.3587 0.570868 23.9324 0.323425 23.4737 0.323425H4.4072C3.94852 0.323425 3.5222 0.570814 3.29457 0.969097L0.0538014 6.64046C0.0185691 6.70216 0 6.77208 0 6.84309C0 8.18072 0.696914 9.35787 1.74604 10.0329V22.1493H1.28143C1.05588 22.1493 0.873021 22.3322 0.873021 22.5577C0.873021 22.7833 1.05588 22.9661 1.28143 22.9661H26.5995C26.8251 22.9661 27.0079 22.7833 27.0079 22.5577C27.0079 22.3322 26.825 22.1493 26.5995 22.1493ZM0.844976 7.2515H2.15429C2.37984 7.2515 2.5627 7.06864 2.5627 6.84309C2.5627 6.61754 2.37984 6.43468 2.15429 6.43468H1.11219L4.0038 1.37435C4.08635 1.22994 4.24089 1.14025 4.4072 1.14025H23.4737C23.64 1.14025 23.7946 1.22994 23.8771 1.37435L26.7687 6.43468H25.7263C25.5007 6.43468 25.3179 6.61754 25.3179 6.84309C25.3179 7.06864 25.5007 7.2515 25.7263 7.2515H27.0359C26.8362 8.69913 25.5911 9.81769 24.0894 9.81769C22.5878 9.81769 21.3433 8.69902 21.1436 7.2515H23.9805C24.2061 7.2515 24.3889 7.06864 24.3889 6.84309C24.3889 6.61754 24.2061 6.43468 23.9805 6.43468H3.90066C3.67511 6.43468 3.49225 6.61754 3.49225 6.84309C3.49225 7.06864 3.67511 7.2515 3.90066 7.2515H6.73727C6.53753 8.69902 5.29296 9.81769 3.79142 9.81769C2.28977 9.81769 1.04466 8.69913 0.844976 7.2515ZM20.2693 7.2515C20.0696 8.69902 18.825 9.81769 17.3235 9.81769C15.8219 9.81769 14.5774 8.69902 14.3776 7.2515H20.2693ZM13.5033 7.2515C13.3035 8.69902 12.059 9.81769 10.5574 9.81769C9.0559 9.81769 7.81134 8.69902 7.6116 7.2515H13.5033ZM23.1354 22.1494H18.714V20.7836H23.1354V22.1494ZM23.1354 19.9668H18.714V12.4897H23.1354V19.9668ZM25.318 22.1494H23.9523V12.0813C23.9523 11.8558 23.7694 11.6729 23.5438 11.6729H18.3057C18.0801 11.6729 17.8973 11.8558 17.8973 12.0813V22.1493H2.56286V10.4291C2.94846 10.5615 3.36145 10.6345 3.79142 10.6345C5.26688 10.6345 6.54815 9.78741 7.17443 8.55396C7.80072 9.78736 9.08199 10.6345 10.5574 10.6345C12.0329 10.6345 13.3142 9.78741 13.9405 8.55396C14.5667 9.78736 15.848 10.6345 17.3235 10.6345C18.7989 10.6345 20.0802 9.78741 20.7065 8.55396C21.3328 9.78736 22.614 10.6345 24.0895 10.6345C24.5195 10.6345 24.9324 10.5615 25.318 10.4291V22.1494Z" fill="#454545"/>
</svg>
