<svg width="46" height="42" viewBox="0 0 46 42" fill="none" xmlns="http://www.w3.org/2000/svg">
<path d="M44.9333 6.428L41.4963 3.12583C41.059 2.70353 40.4641 2.46675 39.8441 2.46824H33.4817C33.2752 2.46824 33.0772 2.38932 32.9312 2.24905L32.2857 1.62961C31.8487 1.2073 31.254 0.970526 30.6342 0.972022H24.138C22.8479 0.972022 21.802 1.97683 21.802 3.21636V4.40286L13.4651 12.4129L8.01456 17.6497L1.13989 24.254C0.407478 24.9541 -0.00296548 25.9067 -4.55618e-05 26.8993V40.6219C-4.55618e-05 41.0351 0.348593 41.37 0.778601 41.37H3.89319C4.32319 41.37 4.67183 41.0351 4.67183 40.6219V28.3955C4.67008 27.7999 4.91623 27.2284 5.35548 26.808L11.4515 20.9518L16.902 15.715L17.1302 15.4959L21.2515 19.4556C21.5556 19.7476 22.0485 19.7476 22.3526 19.4556L29.3604 12.7226L32.0187 10.1686C32.4584 9.74877 32.7048 9.1774 32.7031 8.58181V7.70502C32.7031 7.29188 33.0517 6.95691 33.4817 6.95691H38.2868C38.4935 6.95672 38.6919 7.03565 38.838 7.17611L41.4963 9.73016C41.8004 10.0222 42.2933 10.0222 42.5974 9.73016L44.9333 7.48583C45.2373 7.19369 45.2373 6.72013 44.9333 6.428ZM4.25448 25.7502C3.52206 26.4503 3.11162 27.4029 3.11454 28.3955V39.8738H1.55725V26.8993C1.55549 26.3037 1.80164 25.7322 2.2409 25.3118L8.56506 19.2364L9.8 20.4229L4.25448 25.7502ZM10.901 19.3651L9.66607 18.1786L14.0156 13.9996L15.2505 15.1861L10.901 19.3651ZM21.802 17.8689L18.2312 14.438L24.138 8.76285L26.5417 11.0715L25.0552 10.8336C24.3114 10.7149 23.5538 10.9484 23.0206 11.4605L19.6943 14.6565L20.7953 15.7143L24.1216 12.5184C24.3001 12.3484 24.5524 12.2706 24.8006 12.3089L27.1895 12.6919L21.802 17.8689ZM42.0468 8.14342L39.9391 6.11828C39.5017 5.69597 38.9068 5.45919 38.2868 5.46069H33.4817C32.1916 5.46069 31.1458 6.4655 31.1458 7.70502V8.58181C31.145 8.78006 31.0631 8.97008 30.9177 9.11072L28.8099 11.1359L24.6885 7.17611C24.3844 6.88406 23.8915 6.88406 23.5875 7.17611L16.3515 14.1283L15.1166 12.9418L23.1312 5.24149C23.2772 5.10122 23.3593 4.91101 23.3593 4.71258V3.21636C23.3593 2.80321 23.708 2.46824 24.138 2.46824H30.6342C30.8408 2.46824 31.0387 2.54717 31.1847 2.68744L31.8302 3.30688C32.2672 3.72937 32.8618 3.96615 33.4817 3.96447H39.8441C40.0508 3.96428 40.2491 4.04321 40.3953 4.18366L43.2818 6.95691L42.0468 8.14342Z" fill="black"/>
</svg>
