<svg width="49" height="49" viewBox="0 0 49 49" fill="none" xmlns="http://www.w3.org/2000/svg">
<path d="M46.7515 12.2951H45.7899C45.4817 11.0424 44.9881 9.85154 44.319 8.74621L44.9996 8.0656C45.7668 7.29833 45.7667 6.05003 44.9996 5.28295L43.4362 3.71959C42.6691 2.95241 41.4208 2.95241 40.6537 3.71959L39.9731 4.4002C38.8674 3.73085 37.6764 3.23741 36.4241 2.92932V1.96753C36.4241 0.88263 35.5413 -3.05176e-05 34.4563 -3.05176e-05H32.2453C31.1604 -3.05176e-05 30.2777 0.88263 30.2777 1.96753V2.92913C29.0251 3.23731 27.8345 3.73066 26.7288 4.4L26.0482 3.7194C25.281 2.95242 24.0328 2.95242 23.2656 3.7194L21.7022 5.28276C20.9351 6.04993 20.9351 7.29824 21.7022 8.06551L22.3828 8.74602C21.7137 9.85154 21.2201 11.0425 20.912 12.2949H19.9504C18.8655 12.2949 17.9828 13.1776 17.9828 14.2626V16.4735C17.9828 17.5584 18.8655 18.4411 19.9504 18.4411H20.912C21.2182 19.6853 21.7087 20.8719 22.3728 21.9735L22.5422 22.2649L9.53578 35.2714C7.00768 34.3613 4.11469 34.9894 2.198 36.9059C0.243415 38.8605 -0.378971 41.7923 0.612304 44.3751C0.698775 44.6004 0.893289 44.7665 1.12923 44.8167C1.36526 44.8668 1.61055 44.7942 1.7812 44.6237L5.43372 40.9711L7.23837 41.7134L8.03799 43.5851L4.39043 47.2327C4.21978 47.4033 4.14715 47.6486 4.19735 47.8847C4.24755 48.1206 4.41362 48.3152 4.63887 48.4016C5.45462 48.7147 6.30531 48.8668 7.14894 48.8668C8.97629 48.8668 10.7709 48.1532 12.1082 46.8159C14.0249 44.8992 14.6528 42.0062 13.7427 39.4781L16.1555 37.0654C16.4337 36.7871 16.4337 36.336 16.1555 36.0578C15.8772 35.7797 15.4261 35.7797 15.148 36.0578L12.4031 38.8027C12.1947 39.011 12.1361 39.3261 12.2556 39.5954C13.1853 41.6913 12.7212 44.1879 11.1007 45.8083C9.82001 47.089 8.01298 47.6513 6.26647 47.3718L9.38632 44.2519C9.59219 44.046 9.65203 43.7359 9.53769 43.4682L8.43427 40.8853C8.36097 40.7135 8.22296 40.5774 8.05011 40.5063L5.5368 39.4726C5.27109 39.3634 4.96529 39.4243 4.76209 39.6277L1.64223 42.7475C1.36239 41.0012 1.92513 39.1939 3.2056 37.9133C4.82603 36.2927 7.32274 35.8287 9.41848 36.7585C9.68783 36.8778 10.0029 36.8195 10.2112 36.611L28.2634 18.5588C28.4718 18.3505 28.5304 18.0354 28.4109 17.7661C27.4811 15.6703 27.9453 13.1736 29.5658 11.5532C30.8464 10.2725 32.6536 9.70971 34.4 9.98984C34.3977 9.99203 34.4 9.98984 34.3977 9.99203L31.2708 13.1189C31.2652 13.1246 31.2598 13.1302 31.2544 13.1359C31.2536 13.1368 31.2529 13.1376 31.2521 13.1384C31.2512 13.1395 31.2502 13.1405 31.2492 13.1417C31.244 13.1473 31.2389 13.1529 31.2341 13.1587C31.2329 13.16 31.2318 13.1613 31.2307 13.1627C31.2289 13.1648 31.2272 13.1669 31.2254 13.169C31.2237 13.1711 31.222 13.1733 31.2202 13.1754C31.2192 13.1767 31.2181 13.1779 31.2171 13.1793C31.2155 13.1813 31.2138 13.1834 31.2122 13.1854C31.2111 13.1869 31.2098 13.1884 31.2087 13.19C31.2071 13.1922 31.2054 13.1943 31.2038 13.1964C31.2029 13.1978 31.2018 13.1991 31.2008 13.2005C31.1992 13.2025 31.1978 13.2046 31.1964 13.2066C31.1952 13.2082 31.194 13.2098 31.1928 13.2114C31.1914 13.2134 31.1901 13.2154 31.1887 13.2174C31.1876 13.219 31.1865 13.2206 31.1854 13.2222C31.1841 13.2242 31.1827 13.2262 31.1814 13.2282C31.1802 13.2299 31.1791 13.2318 31.178 13.2335C31.1766 13.2356 31.1753 13.2377 31.1739 13.2398C31.173 13.2413 31.1719 13.2428 31.171 13.2444C31.1696 13.2467 31.168 13.2491 31.1666 13.2515C31.1657 13.253 31.1649 13.2543 31.164 13.2557C31.1627 13.2579 31.1613 13.2603 31.16 13.2626C31.1592 13.2641 31.1582 13.2656 31.1573 13.2672C31.1561 13.2693 31.155 13.2714 31.1537 13.2735C31.1528 13.2752 31.1517 13.277 31.1508 13.2787C31.1496 13.2808 31.1485 13.2829 31.1473 13.285C31.1464 13.2868 31.1454 13.2886 31.1446 13.2903C31.1432 13.2928 31.142 13.2952 31.1407 13.2977C31.1401 13.2991 31.1393 13.3005 31.1386 13.3018C31.1375 13.3042 31.1362 13.3066 31.1351 13.3089C31.1343 13.3105 31.1335 13.3121 31.1327 13.3138C31.1317 13.316 31.1306 13.3182 31.1296 13.3204C31.1287 13.3222 31.1279 13.324 31.1271 13.3257C31.1259 13.3281 31.1249 13.3305 31.1238 13.3328C31.1232 13.3345 31.1224 13.336 31.1217 13.3375C31.1208 13.3396 31.1199 13.3417 31.119 13.3439C31.1181 13.3459 31.1173 13.3479 31.1164 13.35C31.1155 13.352 31.1148 13.354 31.1139 13.356C31.1131 13.358 31.1124 13.3599 31.1116 13.3619C31.1107 13.3643 31.1097 13.3668 31.1088 13.3693C31.1082 13.3709 31.1075 13.3724 31.1069 13.3741C31.106 13.3766 31.1051 13.379 31.1043 13.3815C31.1037 13.3831 31.1031 13.3848 31.1026 13.3864C31.1016 13.389 31.1007 13.3916 31.0999 13.3943C31.0994 13.3958 31.0989 13.3973 31.0984 13.3987C31.0975 13.4012 31.0967 13.4037 31.096 13.406C31.0954 13.408 31.0948 13.4097 31.0943 13.4115C31.0936 13.4136 31.0929 13.4158 31.0923 13.4179C31.0917 13.42 31.0911 13.422 31.0905 13.4241C31.09 13.4262 31.0893 13.4283 31.0887 13.4304C31.0881 13.4324 31.0876 13.4345 31.087 13.4365C31.0863 13.4388 31.0858 13.4411 31.0852 13.4435C31.0847 13.4454 31.0842 13.4472 31.0838 13.4491C31.0831 13.4517 31.0825 13.4541 31.0818 13.4567C31.0815 13.4583 31.0811 13.4599 31.0807 13.4615C31.08 13.4642 31.0795 13.4669 31.0789 13.4696C31.0785 13.4712 31.0781 13.4729 31.0778 13.4745C31.0774 13.4769 31.0768 13.4793 31.0763 13.4818C31.0759 13.4836 31.0755 13.4855 31.0753 13.4873C31.0748 13.4898 31.0743 13.4923 31.0738 13.4949C31.0735 13.4966 31.0732 13.4983 31.0729 13.5001C31.0724 13.5025 31.072 13.505 31.0716 13.5075C31.0713 13.5094 31.071 13.5112 31.0707 13.5131C31.0703 13.5155 31.0699 13.5179 31.0696 13.5202C31.0693 13.5221 31.0691 13.524 31.0688 13.5259C31.0684 13.5287 31.068 13.5315 31.0677 13.5341C31.0675 13.5356 31.0673 13.537 31.0671 13.5384C31.0668 13.5413 31.0665 13.5442 31.0662 13.5472C31.066 13.5486 31.0659 13.5501 31.0657 13.5515C31.0654 13.5543 31.0651 13.5571 31.065 13.56C31.0648 13.5616 31.0647 13.5631 31.0645 13.5648C31.0643 13.5673 31.0641 13.57 31.0639 13.5726C31.0638 13.5744 31.0636 13.5761 31.0635 13.5778C31.0633 13.5805 31.0632 13.5832 31.063 13.5859C31.0629 13.5876 31.0629 13.5892 31.0628 13.5909C31.0627 13.5937 31.0626 13.5965 31.0625 13.5991C31.0624 13.6007 31.0624 13.6022 31.0623 13.6037C31.0622 13.6067 31.0621 13.6097 31.0621 13.6127C31.0621 13.614 31.062 13.6153 31.062 13.6167C31.062 13.6196 31.062 13.6226 31.062 13.6256C31.062 13.627 31.062 13.6284 31.062 13.6299C31.062 13.633 31.0621 13.6361 31.0621 13.6392C31.0621 13.6404 31.0621 13.6415 31.0622 13.6426C31.0623 13.6458 31.0624 13.6488 31.0625 13.652C31.0626 13.6533 31.0626 13.6547 31.0627 13.656C31.0628 13.659 31.0629 13.662 31.0631 13.665C31.0632 13.6663 31.0633 13.6677 31.0633 13.669C31.0635 13.6721 31.0637 13.6754 31.064 13.6785C31.0641 13.6796 31.0642 13.6807 31.0643 13.6818C31.0646 13.6849 31.0649 13.6882 31.0651 13.6913C31.0652 13.6926 31.0654 13.6938 31.0655 13.6951C31.0658 13.6983 31.0662 13.7014 31.0666 13.7046C31.0667 13.7057 31.0669 13.707 31.067 13.7081C31.0673 13.7113 31.0677 13.7143 31.0681 13.7175C31.0683 13.7188 31.0685 13.7201 31.0686 13.7214C31.0691 13.7245 31.0694 13.7277 31.0699 13.7308C31.0701 13.732 31.0703 13.7331 31.0704 13.7343C31.0709 13.7375 31.0714 13.7407 31.0719 13.7439C31.0721 13.7452 31.0723 13.7464 31.0726 13.7476C31.0732 13.7507 31.0737 13.7537 31.0743 13.7568C31.0745 13.758 31.0748 13.7592 31.075 13.7604C31.0756 13.7636 31.0762 13.7668 31.0769 13.7701C31.0771 13.7712 31.0774 13.7724 31.0776 13.7735C31.0783 13.7767 31.0791 13.7801 31.0798 13.7832C31.08 13.7843 31.0803 13.7852 31.0805 13.7863C31.0813 13.7893 31.0819 13.7925 31.0827 13.7955C31.0831 13.797 31.0835 13.7984 31.0838 13.7998C31.0845 13.8027 31.0853 13.8057 31.086 13.8084L31.0871 13.8124C31.088 13.8155 31.0888 13.8185 31.0897 13.8216C31.0901 13.8228 31.0903 13.824 31.0907 13.8252C31.0916 13.8282 31.0924 13.8311 31.0934 13.8341C31.0939 13.8356 31.0943 13.8371 31.0947 13.8385C31.0956 13.8413 31.0964 13.8439 31.0973 13.8467C31.0979 13.8483 31.0984 13.8499 31.0989 13.8515C31.0998 13.8541 31.1007 13.8567 31.1016 13.8594C31.1022 13.861 31.1027 13.8627 31.1033 13.8644C31.1042 13.8668 31.105 13.8692 31.106 13.8717C31.1068 13.8737 31.1074 13.8756 31.1082 13.8776C31.109 13.8799 31.1099 13.8821 31.1108 13.8844C31.1115 13.8863 31.1123 13.8882 31.1131 13.8901C31.114 13.8924 31.1149 13.8947 31.1158 13.897C31.1162 13.898 31.1166 13.8989 31.117 13.8998L32.1603 16.4035C32.2313 16.574 32.3657 16.7102 32.5351 16.7834L35.1085 17.8964C35.3768 18.0123 35.6885 17.9528 35.8951 17.7462L39.0243 14.6169C39.3041 16.3633 38.7414 18.1707 37.4609 19.4511C35.8405 21.0717 33.3437 21.5356 31.248 20.6061C30.9786 20.4867 30.6636 20.5451 30.4553 20.7536L17.1635 34.0424C16.8853 34.3207 16.8853 34.7718 17.1635 35.05C17.4417 35.3281 17.8929 35.3281 18.171 35.05L26.827 26.3941C27.9054 27.0334 29.0644 27.5078 30.2783 27.8066V28.7683C30.2783 29.8532 31.161 30.7359 32.2459 30.7359H34.4569C35.5418 30.7359 36.4245 29.8532 36.4245 28.7683V27.8066C37.6774 27.4984 38.8681 27.0049 39.9734 26.3358L40.6541 27.0164C41.0256 27.3879 41.5198 27.5926 42.0453 27.5926C42.5708 27.5926 43.065 27.3879 43.4366 27.0164L45 25.453C45.3716 25.0814 45.5763 24.5872 45.5763 24.0617C45.5763 23.5361 45.3716 23.0421 45 22.6703L44.3194 21.9898C44.9885 20.8843 45.4822 19.6934 45.7902 18.4409H46.7518C47.8367 18.4409 48.7194 17.5582 48.7194 16.4733V14.2624C48.7191 13.1777 47.8365 12.2951 46.7515 12.2951ZM36.6806 14.9427L35.238 16.3853L33.3645 15.5245L32.6192 13.7858L34.4117 11.9933L36.4187 12.5955L37.0208 14.6025L36.6806 14.9427ZM47.2942 16.4737C47.2942 16.7729 47.0508 17.0164 46.7516 17.0164H45.4283C44.9746 17.0164 44.5753 17.3393 44.4795 17.7841C44.1913 19.1185 43.6692 20.3783 42.9276 21.5287C42.6812 21.911 42.7352 22.4215 43.056 22.7423L43.9921 23.6784C44.0946 23.7809 44.151 23.9172 44.151 24.0621C44.151 24.2071 44.0946 24.3434 43.992 24.4459L42.4286 26.0092C42.217 26.2209 41.8727 26.2209 41.6611 26.0092L40.725 25.0731C40.4043 24.7524 39.8938 24.6984 39.5111 24.9449C38.3611 25.6864 37.1013 26.2084 35.7669 26.4968C35.3219 26.5927 34.999 26.9917 34.999 27.4456V28.7689C34.999 29.0681 34.7556 29.3116 34.4563 29.3116H32.2455C31.9463 29.3116 31.7028 29.0681 31.7028 28.7689V27.4457C31.7028 26.9918 31.3798 26.5927 30.9351 26.4968C29.861 26.2648 28.8323 25.8797 27.8708 25.3505L29.2234 23.9981C30.5053 24.6111 31.9215 24.9331 33.3511 24.9331C37.9174 24.9331 41.8652 21.6846 42.7383 17.2089C42.8137 16.8227 42.5617 16.4486 42.1755 16.3733C41.7893 16.2978 41.4151 16.5499 41.3399 16.9362C40.5972 20.7443 37.2374 23.5084 33.3513 23.5084C32.3049 23.5084 31.2674 23.3059 30.304 22.9176L31.131 22.0906C33.6594 23.0006 36.5522 22.3728 38.4688 20.4561C40.4234 18.5015 41.0458 15.5696 40.0545 12.9867C39.968 12.7614 39.7735 12.5953 39.5376 12.5451C39.3018 12.4951 39.0562 12.5676 38.8856 12.7381L38.1656 13.4582L37.6736 11.8186C37.6048 11.5892 37.4253 11.4097 37.196 11.341L35.5565 10.8491L36.2764 10.1292C36.447 9.95863 36.5197 9.71324 36.4695 9.47721C36.4193 9.24127 36.2532 9.04667 36.0279 8.96029C33.445 7.96911 30.5133 8.5915 28.5587 10.5459C26.6421 12.4627 26.0141 15.3556 26.9241 17.8837L25.9811 18.8267C25.4755 17.7502 25.2113 16.5706 25.2113 15.3684C25.2113 10.8798 28.8629 7.22828 33.3514 7.22828C37.4315 7.22828 40.9017 10.2744 41.4237 14.3142C41.4741 14.7045 41.8313 14.9799 42.2215 14.9295C42.6118 14.879 42.8872 14.5219 42.8368 14.1317C42.2233 9.38387 38.1455 5.8035 33.3513 5.8035C28.0773 5.8035 23.7863 10.0943 23.7863 15.3685C23.7863 16.9521 24.1769 18.5031 24.9201 19.8878L23.5845 21.2233C22.9432 20.1559 22.4851 18.999 22.2228 17.7843C22.1267 17.3395 21.7276 17.0166 21.2738 17.0166H19.9507C19.6514 17.0166 19.408 16.7731 19.408 16.4739V14.2629C19.408 13.9637 19.6514 13.7201 19.9507 13.7201H21.2739C21.7276 13.7201 22.1267 13.3974 22.2227 12.9525C22.5109 11.6181 23.033 10.3583 23.7746 9.20796C24.0212 8.82533 23.967 8.31481 23.6462 7.99431L22.7101 7.05829C22.4985 6.8466 22.4985 6.50224 22.7101 6.29064L24.2735 4.72728C24.4851 4.51559 24.8294 4.51559 25.041 4.72728L25.9771 5.66329C26.2978 5.98427 26.8084 6.03829 27.191 5.79176C28.3414 5.05017 29.6011 4.52809 30.9358 4.23985C31.3804 4.14355 31.7031 3.7446 31.7031 3.29114V1.96753C31.7031 1.66832 31.9466 1.42484 32.2458 1.42484H34.4568C34.756 1.42484 34.9995 1.66832 34.9995 1.96753V3.29086C34.9995 3.74421 35.3222 4.14336 35.7672 4.23966C37.1015 4.5278 38.3612 5.04988 39.5114 5.79138C39.8938 6.038 40.4044 5.98389 40.7254 5.6632L41.6616 4.72709C41.8732 4.5154 42.2175 4.5154 42.4291 4.72709L43.9925 6.29045C44.2041 6.50205 44.2041 6.84641 43.9925 7.05801L43.0566 7.99393C42.7355 8.31471 42.6814 8.82524 42.928 9.20806C43.6695 10.3582 44.1916 11.618 44.4798 12.9523C44.5758 13.3973 44.9748 13.7201 45.4286 13.7201H46.7518C47.0511 13.7201 47.2945 13.9635 47.2945 14.2628V16.4737H47.2942Z" fill="black"/>
</svg>
