<svg width="20" height="18" viewBox="0 0 20 18" fill="none" xmlns="http://www.w3.org/2000/svg">
<path d="M2.08332 2.45458C2.31345 2.45458 2.5 2.27142 2.5 2.04548C2.5 1.81953 2.31345 1.63637 2.08332 1.63637C1.8532 1.63637 1.66664 1.81953 1.66664 2.04548C1.66664 2.27142 1.8532 2.45458 2.08332 2.45458Z" fill="#454545"/>
<path d="M3.74997 2.45458C3.98009 2.45458 4.16665 2.27142 4.16665 2.04548C4.16665 1.81953 3.98009 1.63637 3.74997 1.63637C3.51984 1.63637 3.33329 1.81953 3.33329 2.04548C3.33329 2.27142 3.51984 2.45458 3.74997 2.45458Z" fill="#454545"/>
<path d="M5.41668 2.45458C5.64681 2.45458 5.83336 2.27142 5.83336 2.04548C5.83336 1.81953 5.64681 1.63637 5.41668 1.63637C5.18655 1.63637 5 1.81953 5 2.04548C5 2.27142 5.18655 2.45458 5.41668 2.45458Z" fill="#454545"/>
<path d="M4.58333 8.18183H13.75C13.9803 8.18183 14.1667 7.99885 14.1667 7.77273C14.1667 7.5466 13.9803 7.36363 13.75 7.36363H4.58333C4.35301 7.36363 4.16665 7.5466 4.16665 7.77273C4.16665 7.99885 4.35305 8.18183 4.58333 8.18183Z" fill="#454545"/>
<path d="M9.58333 12.2727H4.58333C4.35301 12.2727 4.16665 12.4557 4.16665 12.6818C4.16665 12.9079 4.35301 13.0909 4.58333 13.0909H9.58333C9.81364 13.0909 10 12.9079 10 12.6818C10 12.4557 9.81364 12.2727 9.58333 12.2727Z" fill="#454545"/>
<path d="M18.405 4.90908C18.3808 4.90908 18.3574 4.91503 18.3334 4.91614V1.63637C18.3334 0.733908 17.5855 0 16.6667 0H1.66668C0.747891 0 0 0.733908 0 1.63637V16.3636C0 17.2661 0.747891 18 1.66668 18H16.6667C17.5855 18 18.3334 17.2661 18.3334 16.3636V8.76011L19.5329 7.58258C19.8299 7.29095 20 6.88706 20 6.47516C20 5.61143 19.2847 4.90908 18.405 4.90908ZM0.83332 1.63637C0.83332 1.18535 1.20687 0.818206 1.66664 0.818206H16.6666C17.1265 0.818206 17.5 1.18535 17.5 1.63637V3.27275H0.83332V1.63637ZM17.5 16.3636C17.5 16.8146 17.1264 17.1818 16.6667 17.1818H1.66668C1.20688 17.1818 0.833359 16.8146 0.833359 16.3636V4.09092H17.5V5.18856C17.4209 5.24194 17.3452 5.30066 17.277 5.36774L12.7434 9.81821H4.58332C4.35301 9.81821 4.16664 10.0012 4.16664 10.2273C4.16664 10.4534 4.35301 10.6364 4.58332 10.6364H12.0749L11.6748 12.6016C11.6471 12.7358 11.6903 12.8745 11.7887 12.9711C11.8677 13.0486 11.9743 13.091 12.0834 13.091C12.1102 13.091 12.1379 13.0882 12.1647 13.083L14.2473 12.6739C14.3286 12.6579 14.4027 12.6191 14.4605 12.562L17.5 9.5782V16.3636ZM13.9608 11.896L12.6148 12.1605L12.8841 10.8373L16.6665 7.12373L17.7441 8.18176L13.9608 11.896ZM18.9437 7.00407L18.3333 7.60333L17.2556 6.54523L17.8662 5.94578C18.0078 5.80714 18.2039 5.72725 18.4049 5.72725C18.8248 5.72725 19.1666 6.06283 19.1666 6.47512C19.1667 6.67171 19.0853 6.86466 18.9437 7.00407Z" fill="#454545"/>
</svg>
